<?xml version="1.0" encoding="iso-8859-1"?>
<!-- Generator: Adobe Illustrator 19.0.0, SVG Export Plug-In . SVG Version: 6.00 Build 0)  -->
<svg version="1.1" id="Capa_1" xmlns="http://www.w3.org/2000/svg" xmlns:xlink="http://www.w3.org/1999/xlink" x="0px" y="0px"
	 viewBox="0 0 512 512" style="enable-background:new 0 0 512 512;" xml:space="preserve">
<path style="fill:#87DCFA;" d="M512,258.968c0,138.49-112.061,252.361-252.361,252.361c-139.935,0-252.361-113.528-252.361-252.361
	c0-139.376,112.986-252.361,252.361-252.361C399.274,6.607,512,119.831,512,258.968z"/>
<path style="fill:#6ACFF2;" d="M486.763,365.556c0,14.633-125.293,18.538-270.059,18.538c-70.747,0-133.051-0.935-178.27-3.593
	c-6.252-11.352-11.653-23.233-16.119-35.561c45.905-7.831,114.803-13.813,194.389-13.813
	C361.47,331.128,486.763,350.933,486.763,365.556z"/>
<path style="fill:#0078C8;" d="M393.873,231.58h-36.439c-12.866,0-24.565-7.324-30.315-18.833
	c-20.919-41.87-53.215-82.283-66.455-98.084c-3.766-4.494-9.007-7.495-14.787-8.481l-63.3-10.795
	c-31.309-8.871-52.772-40.088-48.856-71.057l0.933-7.375c0.57-4.51-0.851-9.128-4.113-12.296
	c-5.542-5.381-14.358-5.301-19.801,0.142L5.763,109.779c-9.951,9.951-6.17,29.863,4.896,40.928
	c110.736,110.737,166.028,166.002,193.636,193.596c15.823,15.814,37.273,24.695,59.644,24.695h203.624
	c10.399,0,18.829-8.43,18.829-18.829v-26.07C486.391,273.002,444.969,231.58,393.873,231.58z"/>
<g>
	<path style="fill:#64AFFF;" d="M246.507,155.387c-2.349-3.772-1.195-8.733,2.577-11.083l42.799-26.651
		c3.772-2.349,8.733-1.195,11.083,2.577c2.349,3.772,1.195,8.733-2.577,11.083l-42.799,26.651
		C253.818,160.313,248.855,159.16,246.507,155.387z"/>
	<path style="fill:#64AFFF;" d="M267.851,189.664c-2.349-3.772-1.195-8.733,2.577-11.083l42.799-26.651
		c3.772-2.349,8.733-1.195,11.083,2.577c2.349,3.772,1.195,8.733-2.577,11.083l-42.799,26.651
		C275.161,194.59,270.2,193.436,267.851,189.664z"/>
	<path style="fill:#64AFFF;" d="M289.195,223.941c-2.349-3.772-1.195-8.733,2.577-11.083l42.799-26.651
		c3.772-2.349,8.733-1.195,11.083,2.577s1.195,8.733-2.577,11.083l-42.799,26.651C296.506,228.867,291.544,227.713,289.195,223.941z
		"/>
</g>
<path style="fill:#0A64B4;" d="M486.389,324.096v26.068c0,10.406-8.433,18.829-18.829,18.829H263.949
	c-22.381,0-43.838-8.88-59.655-24.697c-27.615-27.595-82.898-82.857-193.63-193.589c-11.071-11.071-14.852-30.98-4.902-40.93
	l30.96-30.96l208.826,208.836c6.995,6.995,16.482,10.925,26.373,10.925h210.906C485.143,306.69,486.389,315.248,486.389,324.096z"/>
<path style="fill:#C8E6FF;" d="M486.387,324.095v4.849c-1.787,0-228.098,0.01-230.124,0.01c-5.739,0-11.242-0.354-17.389-6.512
	C188.79,272.358,170.753,254.365,15.96,99.572l11.382-11.371c148.36,148.36,205.649,205.315,220.63,220.187
	c2.757,2.738,6.479,4.268,10.365,4.272l227.376,0.194C486.162,316.533,486.387,320.287,486.387,324.095z"/>
<g>
</g>
<g>
</g>
<g>
</g>
<g>
</g>
<g>
</g>
<g>
</g>
<g>
</g>
<g>
</g>
<g>
</g>
<g>
</g>
<g>
</g>
<g>
</g>
<g>
</g>
<g>
</g>
<g>
</g>
</svg>
